<mxfile host="app.diagrams.net" modified="2021-11-08T20:15:34.280Z" agent="5.0 (Windows NT 10.0; Win64; x64) AppleWebKit/537.36 (KHTML, like Gecko) Chrome/94.0.4606.81 Safari/537.36" etag="Zcb65RkL_pGYaBVgWtUE" version="15.6.8" type="github">
  <diagram id="ENGJdk5pA8UJw1FiYDUX" name="Page-1">
    <mxGraphModel dx="1718" dy="1550" grid="1" gridSize="10" guides="1" tooltips="1" connect="1" arrows="1" fold="1" page="1" pageScale="1" pageWidth="850" pageHeight="1100" math="0" shadow="0">
      <root>
        <mxCell id="0" />
        <mxCell id="1" parent="0" />
        <mxCell id="Ehb19PiIv6LKmTPcDfT7-22" style="rounded=0;orthogonalLoop=1;jettySize=auto;html=1;exitX=0.5;exitY=0;exitDx=0;exitDy=0;entryX=0.5;entryY=1;entryDx=0;entryDy=0;" parent="1" source="Ehb19PiIv6LKmTPcDfT7-1" target="Ehb19PiIv6LKmTPcDfT7-20" edge="1">
          <mxGeometry relative="1" as="geometry" />
        </mxCell>
        <mxCell id="Ehb19PiIv6LKmTPcDfT7-23" style="edgeStyle=none;rounded=0;orthogonalLoop=1;jettySize=auto;html=1;exitX=0.5;exitY=0;exitDx=0;exitDy=0;entryX=0.5;entryY=1;entryDx=0;entryDy=0;" parent="1" source="Ehb19PiIv6LKmTPcDfT7-1" target="Ehb19PiIv6LKmTPcDfT7-9" edge="1">
          <mxGeometry relative="1" as="geometry" />
        </mxCell>
        <mxCell id="Ehb19PiIv6LKmTPcDfT7-24" style="edgeStyle=none;rounded=0;orthogonalLoop=1;jettySize=auto;html=1;exitX=0.5;exitY=0;exitDx=0;exitDy=0;" parent="1" source="Ehb19PiIv6LKmTPcDfT7-1" target="Ehb19PiIv6LKmTPcDfT7-10" edge="1">
          <mxGeometry relative="1" as="geometry" />
        </mxCell>
        <mxCell id="Ehb19PiIv6LKmTPcDfT7-1" value="Sucursal" style="rounded=0;whiteSpace=wrap;html=1;" parent="1" vertex="1">
          <mxGeometry x="10" y="-765" width="90" height="40" as="geometry" />
        </mxCell>
        <mxCell id="Ehb19PiIv6LKmTPcDfT7-30" style="edgeStyle=none;rounded=0;orthogonalLoop=1;jettySize=auto;html=1;exitX=0;exitY=0.5;exitDx=0;exitDy=0;entryX=0.5;entryY=1;entryDx=0;entryDy=0;" parent="1" source="Ehb19PiIv6LKmTPcDfT7-2" target="Ehb19PiIv6LKmTPcDfT7-19" edge="1">
          <mxGeometry relative="1" as="geometry" />
        </mxCell>
        <mxCell id="Ehb19PiIv6LKmTPcDfT7-31" style="edgeStyle=none;rounded=0;orthogonalLoop=1;jettySize=auto;html=1;exitX=0;exitY=0.5;exitDx=0;exitDy=0;" parent="1" source="Ehb19PiIv6LKmTPcDfT7-2" target="Ehb19PiIv6LKmTPcDfT7-11" edge="1">
          <mxGeometry relative="1" as="geometry" />
        </mxCell>
        <mxCell id="Ehb19PiIv6LKmTPcDfT7-32" style="edgeStyle=none;rounded=0;orthogonalLoop=1;jettySize=auto;html=1;exitX=0;exitY=0.5;exitDx=0;exitDy=0;" parent="1" source="Ehb19PiIv6LKmTPcDfT7-2" target="Ehb19PiIv6LKmTPcDfT7-13" edge="1">
          <mxGeometry relative="1" as="geometry" />
        </mxCell>
        <mxCell id="Ehb19PiIv6LKmTPcDfT7-33" style="edgeStyle=none;rounded=0;orthogonalLoop=1;jettySize=auto;html=1;exitX=0;exitY=0.5;exitDx=0;exitDy=0;" parent="1" source="Ehb19PiIv6LKmTPcDfT7-2" target="Ehb19PiIv6LKmTPcDfT7-12" edge="1">
          <mxGeometry relative="1" as="geometry" />
        </mxCell>
        <mxCell id="Ehb19PiIv6LKmTPcDfT7-39" style="edgeStyle=none;rounded=0;orthogonalLoop=1;jettySize=auto;html=1;exitX=0;exitY=0.5;exitDx=0;exitDy=0;entryX=1;entryY=0;entryDx=0;entryDy=0;" parent="1" source="Ehb19PiIv6LKmTPcDfT7-2" target="Ehb19PiIv6LKmTPcDfT7-14" edge="1">
          <mxGeometry relative="1" as="geometry" />
        </mxCell>
        <mxCell id="Ehb19PiIv6LKmTPcDfT7-2" value="Empleado" style="rounded=0;whiteSpace=wrap;html=1;" parent="1" vertex="1">
          <mxGeometry x="10" y="-560" width="90" height="40" as="geometry" />
        </mxCell>
        <mxCell id="Ehb19PiIv6LKmTPcDfT7-41" style="edgeStyle=none;rounded=0;orthogonalLoop=1;jettySize=auto;html=1;exitX=1;exitY=0.5;exitDx=0;exitDy=0;entryX=0;entryY=0.5;entryDx=0;entryDy=0;" parent="1" source="Ehb19PiIv6LKmTPcDfT7-3" target="Ehb19PiIv6LKmTPcDfT7-21" edge="1">
          <mxGeometry relative="1" as="geometry" />
        </mxCell>
        <mxCell id="Ehb19PiIv6LKmTPcDfT7-42" style="edgeStyle=none;rounded=0;orthogonalLoop=1;jettySize=auto;html=1;exitX=1;exitY=0.5;exitDx=0;exitDy=0;entryX=0;entryY=0.5;entryDx=0;entryDy=0;" parent="1" source="Ehb19PiIv6LKmTPcDfT7-3" target="Ehb19PiIv6LKmTPcDfT7-16" edge="1">
          <mxGeometry relative="1" as="geometry" />
        </mxCell>
        <mxCell id="Ehb19PiIv6LKmTPcDfT7-43" style="edgeStyle=none;rounded=0;orthogonalLoop=1;jettySize=auto;html=1;exitX=1;exitY=0.5;exitDx=0;exitDy=0;entryX=0;entryY=0.5;entryDx=0;entryDy=0;" parent="1" source="Ehb19PiIv6LKmTPcDfT7-3" target="Ehb19PiIv6LKmTPcDfT7-17" edge="1">
          <mxGeometry relative="1" as="geometry" />
        </mxCell>
        <mxCell id="Ehb19PiIv6LKmTPcDfT7-3" value="Proveedor" style="rounded=0;whiteSpace=wrap;html=1;" parent="1" vertex="1">
          <mxGeometry x="470" y="-630" width="90" height="40" as="geometry" />
        </mxCell>
        <mxCell id="Ehb19PiIv6LKmTPcDfT7-50" style="edgeStyle=none;rounded=0;orthogonalLoop=1;jettySize=auto;html=1;exitX=1;exitY=0.5;exitDx=0;exitDy=0;entryX=0;entryY=0.5;entryDx=0;entryDy=0;" parent="1" source="Ehb19PiIv6LKmTPcDfT7-4" target="Ehb19PiIv6LKmTPcDfT7-46" edge="1">
          <mxGeometry relative="1" as="geometry" />
        </mxCell>
        <mxCell id="Ehb19PiIv6LKmTPcDfT7-51" style="edgeStyle=none;rounded=0;orthogonalLoop=1;jettySize=auto;html=1;exitX=1;exitY=0.5;exitDx=0;exitDy=0;entryX=0;entryY=0.5;entryDx=0;entryDy=0;" parent="1" source="Ehb19PiIv6LKmTPcDfT7-4" target="Ehb19PiIv6LKmTPcDfT7-47" edge="1">
          <mxGeometry relative="1" as="geometry" />
        </mxCell>
        <mxCell id="Ehb19PiIv6LKmTPcDfT7-52" style="edgeStyle=none;rounded=0;orthogonalLoop=1;jettySize=auto;html=1;exitX=1;exitY=0.5;exitDx=0;exitDy=0;entryX=0;entryY=0.5;entryDx=0;entryDy=0;" parent="1" source="Ehb19PiIv6LKmTPcDfT7-4" target="Ehb19PiIv6LKmTPcDfT7-49" edge="1">
          <mxGeometry relative="1" as="geometry" />
        </mxCell>
        <mxCell id="Ehb19PiIv6LKmTPcDfT7-53" style="edgeStyle=none;rounded=0;orthogonalLoop=1;jettySize=auto;html=1;exitX=1;exitY=0.5;exitDx=0;exitDy=0;" parent="1" source="Ehb19PiIv6LKmTPcDfT7-4" target="Ehb19PiIv6LKmTPcDfT7-48" edge="1">
          <mxGeometry relative="1" as="geometry" />
        </mxCell>
        <mxCell id="Ehb19PiIv6LKmTPcDfT7-81" style="edgeStyle=none;rounded=0;orthogonalLoop=1;jettySize=auto;html=1;exitX=1;exitY=0.5;exitDx=0;exitDy=0;" parent="1" source="Ehb19PiIv6LKmTPcDfT7-4" target="Ehb19PiIv6LKmTPcDfT7-80" edge="1">
          <mxGeometry relative="1" as="geometry" />
        </mxCell>
        <mxCell id="Ehb19PiIv6LKmTPcDfT7-82" style="edgeStyle=none;rounded=0;orthogonalLoop=1;jettySize=auto;html=1;exitX=1;exitY=0.5;exitDx=0;exitDy=0;entryX=0;entryY=0;entryDx=0;entryDy=0;" parent="1" source="Ehb19PiIv6LKmTPcDfT7-4" target="Ehb19PiIv6LKmTPcDfT7-79" edge="1">
          <mxGeometry relative="1" as="geometry" />
        </mxCell>
        <mxCell id="Ehb19PiIv6LKmTPcDfT7-4" value="Producto" style="rounded=0;whiteSpace=wrap;html=1;" parent="1" vertex="1">
          <mxGeometry x="470" y="-430" width="90" height="40" as="geometry" />
        </mxCell>
        <mxCell id="Ehb19PiIv6LKmTPcDfT7-77" style="edgeStyle=none;rounded=0;orthogonalLoop=1;jettySize=auto;html=1;exitX=0;exitY=0.5;exitDx=0;exitDy=0;entryX=1;entryY=0.5;entryDx=0;entryDy=0;" parent="1" source="Ehb19PiIv6LKmTPcDfT7-5" target="Ehb19PiIv6LKmTPcDfT7-75" edge="1">
          <mxGeometry relative="1" as="geometry" />
        </mxCell>
        <mxCell id="Ehb19PiIv6LKmTPcDfT7-78" style="edgeStyle=none;rounded=0;orthogonalLoop=1;jettySize=auto;html=1;exitX=0;exitY=0.5;exitDx=0;exitDy=0;" parent="1" source="Ehb19PiIv6LKmTPcDfT7-5" target="Ehb19PiIv6LKmTPcDfT7-76" edge="1">
          <mxGeometry relative="1" as="geometry" />
        </mxCell>
        <mxCell id="Ehb19PiIv6LKmTPcDfT7-5" value="CategoriaProd" style="rounded=0;whiteSpace=wrap;html=1;" parent="1" vertex="1">
          <mxGeometry x="230" y="-365" width="90" height="40" as="geometry" />
        </mxCell>
        <mxCell id="Ehb19PiIv6LKmTPcDfT7-67" style="edgeStyle=none;rounded=0;orthogonalLoop=1;jettySize=auto;html=1;exitX=0;exitY=0.5;exitDx=0;exitDy=0;entryX=1;entryY=0.5;entryDx=0;entryDy=0;" parent="1" source="Ehb19PiIv6LKmTPcDfT7-6" target="Ehb19PiIv6LKmTPcDfT7-64" edge="1">
          <mxGeometry relative="1" as="geometry" />
        </mxCell>
        <mxCell id="Ehb19PiIv6LKmTPcDfT7-68" style="edgeStyle=none;rounded=0;orthogonalLoop=1;jettySize=auto;html=1;exitX=0;exitY=0.5;exitDx=0;exitDy=0;entryX=1;entryY=0.5;entryDx=0;entryDy=0;" parent="1" source="Ehb19PiIv6LKmTPcDfT7-6" target="Ehb19PiIv6LKmTPcDfT7-65" edge="1">
          <mxGeometry relative="1" as="geometry" />
        </mxCell>
        <mxCell id="Ehb19PiIv6LKmTPcDfT7-69" style="edgeStyle=none;rounded=0;orthogonalLoop=1;jettySize=auto;html=1;exitX=0;exitY=0.5;exitDx=0;exitDy=0;entryX=1;entryY=0;entryDx=0;entryDy=0;" parent="1" source="Ehb19PiIv6LKmTPcDfT7-6" target="Ehb19PiIv6LKmTPcDfT7-66" edge="1">
          <mxGeometry relative="1" as="geometry" />
        </mxCell>
        <mxCell id="Ehb19PiIv6LKmTPcDfT7-71" style="edgeStyle=none;rounded=0;orthogonalLoop=1;jettySize=auto;html=1;exitX=0;exitY=0.5;exitDx=0;exitDy=0;entryX=1;entryY=0;entryDx=0;entryDy=0;" parent="1" source="Ehb19PiIv6LKmTPcDfT7-6" target="Ehb19PiIv6LKmTPcDfT7-70" edge="1">
          <mxGeometry relative="1" as="geometry" />
        </mxCell>
        <mxCell id="Ehb19PiIv6LKmTPcDfT7-6" value="Cliente" style="rounded=0;whiteSpace=wrap;html=1;" parent="1" vertex="1">
          <mxGeometry x="-40" y="-275" width="90" height="40" as="geometry" />
        </mxCell>
        <mxCell id="Ehb19PiIv6LKmTPcDfT7-61" style="edgeStyle=none;rounded=0;orthogonalLoop=1;jettySize=auto;html=1;exitX=0.5;exitY=1;exitDx=0;exitDy=0;entryX=0.5;entryY=0;entryDx=0;entryDy=0;" parent="1" source="Ehb19PiIv6LKmTPcDfT7-7" target="Ehb19PiIv6LKmTPcDfT7-60" edge="1">
          <mxGeometry relative="1" as="geometry" />
        </mxCell>
        <mxCell id="Ehb19PiIv6LKmTPcDfT7-63" style="edgeStyle=none;rounded=0;orthogonalLoop=1;jettySize=auto;html=1;exitX=0.5;exitY=1;exitDx=0;exitDy=0;entryX=0.5;entryY=0;entryDx=0;entryDy=0;" parent="1" source="Ehb19PiIv6LKmTPcDfT7-7" target="Ehb19PiIv6LKmTPcDfT7-62" edge="1">
          <mxGeometry relative="1" as="geometry" />
        </mxCell>
        <mxCell id="Ehb19PiIv6LKmTPcDfT7-7" value="Compra" style="rounded=0;whiteSpace=wrap;html=1;" parent="1" vertex="1">
          <mxGeometry x="250" y="-275" width="90" height="40" as="geometry" />
        </mxCell>
        <mxCell id="Ehb19PiIv6LKmTPcDfT7-9" value="Nombre" style="ellipse;whiteSpace=wrap;html=1;" parent="1" vertex="1">
          <mxGeometry x="20" y="-850" width="70" height="40" as="geometry" />
        </mxCell>
        <mxCell id="Ehb19PiIv6LKmTPcDfT7-10" value="Direccion" style="ellipse;whiteSpace=wrap;html=1;" parent="1" vertex="1">
          <mxGeometry x="110" y="-850" width="70" height="40" as="geometry" />
        </mxCell>
        <mxCell id="Ehb19PiIv6LKmTPcDfT7-11" value="Nombre" style="ellipse;whiteSpace=wrap;html=1;" parent="1" vertex="1">
          <mxGeometry x="-110" y="-670" width="60" height="40" as="geometry" />
        </mxCell>
        <mxCell id="Ehb19PiIv6LKmTPcDfT7-12" value="Puesto" style="ellipse;whiteSpace=wrap;html=1;" parent="1" vertex="1">
          <mxGeometry x="-160" y="-595" width="60" height="40" as="geometry" />
        </mxCell>
        <mxCell id="Ehb19PiIv6LKmTPcDfT7-13" value="Apellido" style="ellipse;whiteSpace=wrap;html=1;" parent="1" vertex="1">
          <mxGeometry x="-170" y="-640" width="60" height="40" as="geometry" />
        </mxCell>
        <mxCell id="Ehb19PiIv6LKmTPcDfT7-14" value="SalarioBase" style="ellipse;whiteSpace=wrap;html=1;" parent="1" vertex="1">
          <mxGeometry x="-135" y="-550" width="70" height="45" as="geometry" />
        </mxCell>
        <mxCell id="Ehb19PiIv6LKmTPcDfT7-16" value="Nombre" style="ellipse;whiteSpace=wrap;html=1;" parent="1" vertex="1">
          <mxGeometry x="680" y="-680" width="60" height="40" as="geometry" />
        </mxCell>
        <mxCell id="Ehb19PiIv6LKmTPcDfT7-17" value="Porcentaje" style="ellipse;whiteSpace=wrap;html=1;" parent="1" vertex="1">
          <mxGeometry x="640" y="-630" width="60" height="40" as="geometry" />
        </mxCell>
        <mxCell id="Ehb19PiIv6LKmTPcDfT7-19" value="&lt;u&gt;ID&lt;/u&gt;" style="ellipse;whiteSpace=wrap;html=1;" parent="1" vertex="1">
          <mxGeometry x="-50" y="-670" width="60" height="40" as="geometry" />
        </mxCell>
        <mxCell id="Ehb19PiIv6LKmTPcDfT7-20" value="&lt;u&gt;ID&lt;/u&gt;" style="ellipse;whiteSpace=wrap;html=1;" parent="1" vertex="1">
          <mxGeometry x="-60" y="-850" width="60" height="40" as="geometry" />
        </mxCell>
        <mxCell id="Ehb19PiIv6LKmTPcDfT7-21" value="&lt;u&gt;ID&lt;/u&gt;" style="ellipse;whiteSpace=wrap;html=1;" parent="1" vertex="1">
          <mxGeometry x="600" y="-700" width="60" height="40" as="geometry" />
        </mxCell>
        <mxCell id="Ehb19PiIv6LKmTPcDfT7-25" value="Tiene" style="rhombus;whiteSpace=wrap;html=1;" parent="1" vertex="1">
          <mxGeometry x="25" y="-670" width="60" height="50" as="geometry" />
        </mxCell>
        <mxCell id="Ehb19PiIv6LKmTPcDfT7-27" value="" style="endArrow=none;html=1;rounded=0;entryX=0.5;entryY=1;entryDx=0;entryDy=0;exitX=0.5;exitY=0;exitDx=0;exitDy=0;" parent="1" source="Ehb19PiIv6LKmTPcDfT7-25" target="Ehb19PiIv6LKmTPcDfT7-1" edge="1">
          <mxGeometry width="50" height="50" relative="1" as="geometry">
            <mxPoint x="-60" y="-650" as="sourcePoint" />
            <mxPoint x="-10" y="-700" as="targetPoint" />
          </mxGeometry>
        </mxCell>
        <mxCell id="Ehb19PiIv6LKmTPcDfT7-28" value="" style="endArrow=none;html=1;rounded=0;exitX=0.5;exitY=0;exitDx=0;exitDy=0;entryX=0.5;entryY=1;entryDx=0;entryDy=0;" parent="1" source="Ehb19PiIv6LKmTPcDfT7-2" target="Ehb19PiIv6LKmTPcDfT7-25" edge="1">
          <mxGeometry width="50" height="50" relative="1" as="geometry">
            <mxPoint x="54.5" y="-565" as="sourcePoint" />
            <mxPoint x="120" y="-610" as="targetPoint" />
          </mxGeometry>
        </mxCell>
        <mxCell id="Ehb19PiIv6LKmTPcDfT7-40" value="Distribuye" style="rhombus;whiteSpace=wrap;html=1;" parent="1" vertex="1">
          <mxGeometry x="485" y="-535" width="60" height="50" as="geometry" />
        </mxCell>
        <mxCell id="Ehb19PiIv6LKmTPcDfT7-44" value="" style="endArrow=none;html=1;rounded=0;exitX=0.5;exitY=0;exitDx=0;exitDy=0;entryX=0.5;entryY=1;entryDx=0;entryDy=0;" parent="1" source="Ehb19PiIv6LKmTPcDfT7-40" target="Ehb19PiIv6LKmTPcDfT7-3" edge="1">
          <mxGeometry width="50" height="50" relative="1" as="geometry">
            <mxPoint x="514.3299999999999" y="-530" as="sourcePoint" />
            <mxPoint x="514.3299999999999" y="-590" as="targetPoint" />
          </mxGeometry>
        </mxCell>
        <mxCell id="Ehb19PiIv6LKmTPcDfT7-45" value="" style="endArrow=none;html=1;rounded=0;exitX=0.5;exitY=0;exitDx=0;exitDy=0;entryX=0.5;entryY=1;entryDx=0;entryDy=0;" parent="1" source="Ehb19PiIv6LKmTPcDfT7-4" target="Ehb19PiIv6LKmTPcDfT7-40" edge="1">
          <mxGeometry width="50" height="50" relative="1" as="geometry">
            <mxPoint x="514.3299999999999" y="-430" as="sourcePoint" />
            <mxPoint x="514.3299999999999" y="-490" as="targetPoint" />
          </mxGeometry>
        </mxCell>
        <mxCell id="Ehb19PiIv6LKmTPcDfT7-46" value="&lt;u&gt;ID&lt;/u&gt;" style="ellipse;whiteSpace=wrap;html=1;" parent="1" vertex="1">
          <mxGeometry x="600" y="-500" width="60" height="40" as="geometry" />
        </mxCell>
        <mxCell id="Ehb19PiIv6LKmTPcDfT7-47" value="Nombre" style="ellipse;whiteSpace=wrap;html=1;" parent="1" vertex="1">
          <mxGeometry x="690" y="-500" width="60" height="40" as="geometry" />
        </mxCell>
        <mxCell id="Ehb19PiIv6LKmTPcDfT7-48" value="Precio Compra" style="ellipse;whiteSpace=wrap;html=1;" parent="1" vertex="1">
          <mxGeometry x="720" y="-415" width="60" height="40" as="geometry" />
        </mxCell>
        <mxCell id="Ehb19PiIv6LKmTPcDfT7-49" value="Precio Venta" style="ellipse;whiteSpace=wrap;html=1;" parent="1" vertex="1">
          <mxGeometry x="670" y="-455" width="60" height="40" as="geometry" />
        </mxCell>
        <mxCell id="Ehb19PiIv6LKmTPcDfT7-54" value="Hacen" style="rhombus;whiteSpace=wrap;html=1;" parent="1" vertex="1">
          <mxGeometry x="120" y="-280" width="60" height="50" as="geometry" />
        </mxCell>
        <mxCell id="Ehb19PiIv6LKmTPcDfT7-55" value="" style="endArrow=none;html=1;rounded=0;entryX=1;entryY=0.5;entryDx=0;entryDy=0;exitX=0;exitY=0.5;exitDx=0;exitDy=0;" parent="1" source="Ehb19PiIv6LKmTPcDfT7-54" target="Ehb19PiIv6LKmTPcDfT7-6" edge="1">
          <mxGeometry width="50" height="50" relative="1" as="geometry">
            <mxPoint x="-10" y="-60" as="sourcePoint" />
            <mxPoint x="40" y="-110" as="targetPoint" />
          </mxGeometry>
        </mxCell>
        <mxCell id="Ehb19PiIv6LKmTPcDfT7-56" value="" style="endArrow=none;html=1;rounded=0;exitX=1;exitY=0.5;exitDx=0;exitDy=0;entryX=0;entryY=0.5;entryDx=0;entryDy=0;" parent="1" source="Ehb19PiIv6LKmTPcDfT7-54" target="Ehb19PiIv6LKmTPcDfT7-7" edge="1">
          <mxGeometry width="50" height="50" relative="1" as="geometry">
            <mxPoint x="210" y="-240" as="sourcePoint" />
            <mxPoint x="260" y="-290" as="targetPoint" />
          </mxGeometry>
        </mxCell>
        <mxCell id="Ehb19PiIv6LKmTPcDfT7-57" value="Tiene" style="rhombus;whiteSpace=wrap;html=1;" parent="1" vertex="1">
          <mxGeometry x="485" y="-280" width="60" height="50" as="geometry" />
        </mxCell>
        <mxCell id="Ehb19PiIv6LKmTPcDfT7-58" value="" style="endArrow=none;html=1;rounded=0;exitX=1;exitY=0.5;exitDx=0;exitDy=0;entryX=0;entryY=0.5;entryDx=0;entryDy=0;" parent="1" source="Ehb19PiIv6LKmTPcDfT7-7" target="Ehb19PiIv6LKmTPcDfT7-57" edge="1">
          <mxGeometry width="50" height="50" relative="1" as="geometry">
            <mxPoint x="410" y="-290" as="sourcePoint" />
            <mxPoint x="460" y="-340" as="targetPoint" />
          </mxGeometry>
        </mxCell>
        <mxCell id="Ehb19PiIv6LKmTPcDfT7-59" value="" style="endArrow=none;html=1;rounded=0;entryX=0.5;entryY=1;entryDx=0;entryDy=0;exitX=0.5;exitY=0;exitDx=0;exitDy=0;" parent="1" source="Ehb19PiIv6LKmTPcDfT7-57" target="Ehb19PiIv6LKmTPcDfT7-4" edge="1">
          <mxGeometry width="50" height="50" relative="1" as="geometry">
            <mxPoint x="450" y="-310" as="sourcePoint" />
            <mxPoint x="500" y="-360" as="targetPoint" />
          </mxGeometry>
        </mxCell>
        <mxCell id="Ehb19PiIv6LKmTPcDfT7-60" value="&lt;u&gt;ID&lt;/u&gt;" style="ellipse;whiteSpace=wrap;html=1;" parent="1" vertex="1">
          <mxGeometry x="230" y="-190" width="60" height="40" as="geometry" />
        </mxCell>
        <mxCell id="Ehb19PiIv6LKmTPcDfT7-62" value="fecha" style="ellipse;whiteSpace=wrap;html=1;" parent="1" vertex="1">
          <mxGeometry x="300" y="-190" width="60" height="40" as="geometry" />
        </mxCell>
        <mxCell id="Ehb19PiIv6LKmTPcDfT7-64" value="&lt;u&gt;ID&lt;/u&gt;" style="ellipse;whiteSpace=wrap;html=1;" parent="1" vertex="1">
          <mxGeometry x="-150" y="-320" width="60" height="40" as="geometry" />
        </mxCell>
        <mxCell id="Ehb19PiIv6LKmTPcDfT7-65" value="Nombre" style="ellipse;whiteSpace=wrap;html=1;" parent="1" vertex="1">
          <mxGeometry x="-150" y="-275" width="60" height="40" as="geometry" />
        </mxCell>
        <mxCell id="Ehb19PiIv6LKmTPcDfT7-66" value="Apellido" style="ellipse;whiteSpace=wrap;html=1;" parent="1" vertex="1">
          <mxGeometry x="-150" y="-230" width="60" height="40" as="geometry" />
        </mxCell>
        <mxCell id="Ehb19PiIv6LKmTPcDfT7-70" value="Direccion" style="ellipse;whiteSpace=wrap;html=1;" parent="1" vertex="1">
          <mxGeometry x="-130" y="-190" width="70" height="40" as="geometry" />
        </mxCell>
        <mxCell id="Ehb19PiIv6LKmTPcDfT7-72" value="Tiene" style="rhombus;whiteSpace=wrap;html=1;" parent="1" vertex="1">
          <mxGeometry x="365" y="-370" width="60" height="50" as="geometry" />
        </mxCell>
        <mxCell id="Ehb19PiIv6LKmTPcDfT7-73" value="" style="endArrow=none;html=1;rounded=0;entryX=0;entryY=0.5;entryDx=0;entryDy=0;exitX=1;exitY=0.5;exitDx=0;exitDy=0;" parent="1" source="Ehb19PiIv6LKmTPcDfT7-5" target="Ehb19PiIv6LKmTPcDfT7-72" edge="1">
          <mxGeometry width="50" height="50" relative="1" as="geometry">
            <mxPoint x="340" y="-330" as="sourcePoint" />
            <mxPoint x="390" y="-380" as="targetPoint" />
          </mxGeometry>
        </mxCell>
        <mxCell id="Ehb19PiIv6LKmTPcDfT7-74" value="" style="endArrow=none;html=1;rounded=0;entryX=0;entryY=0.5;entryDx=0;entryDy=0;exitX=1;exitY=0.5;exitDx=0;exitDy=0;edgeStyle=orthogonalEdgeStyle;" parent="1" source="Ehb19PiIv6LKmTPcDfT7-72" target="Ehb19PiIv6LKmTPcDfT7-4" edge="1">
          <mxGeometry width="50" height="50" relative="1" as="geometry">
            <mxPoint x="410" y="-290" as="sourcePoint" />
            <mxPoint x="460" y="-340" as="targetPoint" />
          </mxGeometry>
        </mxCell>
        <mxCell id="Ehb19PiIv6LKmTPcDfT7-75" value="&lt;u&gt;ID&lt;/u&gt;" style="ellipse;whiteSpace=wrap;html=1;" parent="1" vertex="1">
          <mxGeometry x="150" y="-405" width="60" height="40" as="geometry" />
        </mxCell>
        <mxCell id="Ehb19PiIv6LKmTPcDfT7-76" value="Nombre" style="ellipse;whiteSpace=wrap;html=1;" parent="1" vertex="1">
          <mxGeometry x="120" y="-355" width="60" height="40" as="geometry" />
        </mxCell>
        <mxCell id="Ehb19PiIv6LKmTPcDfT7-79" value="Fecha Produccion" style="ellipse;whiteSpace=wrap;html=1;" parent="1" vertex="1">
          <mxGeometry x="670" y="-380" width="60" height="40" as="geometry" />
        </mxCell>
        <mxCell id="Ehb19PiIv6LKmTPcDfT7-80" value="Fecha Expiracion" style="ellipse;whiteSpace=wrap;html=1;" parent="1" vertex="1">
          <mxGeometry x="610" y="-350" width="60" height="40" as="geometry" />
        </mxCell>
        <mxCell id="Ehb19PiIv6LKmTPcDfT7-83" value="Vende" style="rhombus;whiteSpace=wrap;html=1;" parent="1" vertex="1">
          <mxGeometry x="230" y="-640" width="60" height="50" as="geometry" />
        </mxCell>
        <mxCell id="Ehb19PiIv6LKmTPcDfT7-84" value="" style="endArrow=none;html=1;rounded=0;exitX=1;exitY=0.5;exitDx=0;exitDy=0;entryX=0.5;entryY=0;entryDx=0;entryDy=0;edgeStyle=orthogonalEdgeStyle;" parent="1" source="Ehb19PiIv6LKmTPcDfT7-1" target="Ehb19PiIv6LKmTPcDfT7-83" edge="1">
          <mxGeometry width="50" height="50" relative="1" as="geometry">
            <mxPoint x="210" y="-690" as="sourcePoint" />
            <mxPoint x="260" y="-740" as="targetPoint" />
          </mxGeometry>
        </mxCell>
        <mxCell id="Ehb19PiIv6LKmTPcDfT7-86" value="" style="endArrow=none;html=1;rounded=0;entryX=0.5;entryY=1;entryDx=0;entryDy=0;exitX=0;exitY=0.5;exitDx=0;exitDy=0;edgeStyle=orthogonalEdgeStyle;" parent="1" source="Ehb19PiIv6LKmTPcDfT7-4" target="Ehb19PiIv6LKmTPcDfT7-83" edge="1">
          <mxGeometry width="50" height="50" relative="1" as="geometry">
            <mxPoint x="230" y="-450" as="sourcePoint" />
            <mxPoint x="280" y="-500" as="targetPoint" />
          </mxGeometry>
        </mxCell>
        <mxCell id="GA1GhynCRn1cI76Y5Yom-1" value="Tiene" style="rhombus;whiteSpace=wrap;html=1;" vertex="1" parent="1">
          <mxGeometry x="25" y="-485" width="60" height="50" as="geometry" />
        </mxCell>
        <mxCell id="GA1GhynCRn1cI76Y5Yom-2" value="" style="endArrow=none;html=1;rounded=0;entryX=0.5;entryY=1;entryDx=0;entryDy=0;exitX=0.5;exitY=0;exitDx=0;exitDy=0;" edge="1" parent="1" source="GA1GhynCRn1cI76Y5Yom-1" target="Ehb19PiIv6LKmTPcDfT7-2">
          <mxGeometry width="50" height="50" relative="1" as="geometry">
            <mxPoint x="-30" y="-340" as="sourcePoint" />
            <mxPoint x="20" y="-390" as="targetPoint" />
          </mxGeometry>
        </mxCell>
        <mxCell id="GA1GhynCRn1cI76Y5Yom-9" style="rounded=0;orthogonalLoop=1;jettySize=auto;html=1;exitX=0;exitY=0.5;exitDx=0;exitDy=0;entryX=1;entryY=0.5;entryDx=0;entryDy=0;" edge="1" parent="1" source="GA1GhynCRn1cI76Y5Yom-3" target="GA1GhynCRn1cI76Y5Yom-6">
          <mxGeometry relative="1" as="geometry" />
        </mxCell>
        <mxCell id="GA1GhynCRn1cI76Y5Yom-10" style="edgeStyle=none;rounded=0;orthogonalLoop=1;jettySize=auto;html=1;exitX=0;exitY=0.5;exitDx=0;exitDy=0;entryX=1;entryY=0.5;entryDx=0;entryDy=0;" edge="1" parent="1" source="GA1GhynCRn1cI76Y5Yom-3" target="GA1GhynCRn1cI76Y5Yom-7">
          <mxGeometry relative="1" as="geometry" />
        </mxCell>
        <mxCell id="GA1GhynCRn1cI76Y5Yom-3" value="Puesto" style="rounded=0;whiteSpace=wrap;html=1;" vertex="1" parent="1">
          <mxGeometry x="10" y="-405" width="90" height="40" as="geometry" />
        </mxCell>
        <mxCell id="GA1GhynCRn1cI76Y5Yom-5" value="" style="endArrow=none;html=1;rounded=0;entryX=0.5;entryY=1;entryDx=0;entryDy=0;exitX=0.5;exitY=0;exitDx=0;exitDy=0;" edge="1" parent="1" source="GA1GhynCRn1cI76Y5Yom-3" target="GA1GhynCRn1cI76Y5Yom-1">
          <mxGeometry width="50" height="50" relative="1" as="geometry">
            <mxPoint x="-10" y="-400" as="sourcePoint" />
            <mxPoint x="40" y="-450" as="targetPoint" />
          </mxGeometry>
        </mxCell>
        <mxCell id="GA1GhynCRn1cI76Y5Yom-6" value="&lt;u&gt;ID&lt;/u&gt;" style="ellipse;whiteSpace=wrap;html=1;" vertex="1" parent="1">
          <mxGeometry x="-70" y="-445" width="60" height="40" as="geometry" />
        </mxCell>
        <mxCell id="GA1GhynCRn1cI76Y5Yom-7" value="Nombre" style="ellipse;whiteSpace=wrap;html=1;" vertex="1" parent="1">
          <mxGeometry x="-90" y="-395" width="60" height="40" as="geometry" />
        </mxCell>
      </root>
    </mxGraphModel>
  </diagram>
</mxfile>
